<svg width="112" height="256" viewBox="0 0 112 256" fill="none" xmlns="http://www.w3.org/2000/svg">
<rect x="33" width="39" height="8" rx="2" fill="#DEDEDE"/>
<rect x="33" y="11" width="79" height="13" rx="2" fill="#DEDEDE"/>
<rect x="33" y="29" width="79" height="20" rx="2" fill="#DEDEDE"/>
<rect width="27" height="27" rx="2" fill="#DEDEDE"/>
<rect x="33" y="69" width="39" height="8" rx="2" fill="#DEDEDE"/>
<rect x="33" y="80" width="79" height="13" rx="2" fill="#DEDEDE"/>
<rect x="33" y="98" width="79" height="20" rx="2" fill="#DEDEDE"/>
<rect y="69" width="27" height="27" rx="2" fill="#DEDEDE"/>
<rect x="33" y="138" width="39" height="8" rx="2" fill="#DEDEDE"/>
<rect x="33" y="149" width="79" height="13" rx="2" fill="#DEDEDE"/>
<rect x="33" y="167" width="79" height="20" rx="2" fill="#DEDEDE"/>
<rect y="138" width="27" height="27" rx="2" fill="#DEDEDE"/>
<rect x="33" y="207" width="39" height="8" rx="2" fill="#DEDEDE"/>
<rect x="33" y="218" width="79" height="13" rx="2" fill="#DEDEDE"/>
<rect x="33" y="236" width="79" height="20" rx="2" fill="#DEDEDE"/>
<rect y="207" width="27" height="27" rx="2" fill="#DEDEDE"/>
</svg>
