<svg width="128" height="128" viewBox="0 0 128 128" fill="none" xmlns="http://www.w3.org/2000/svg">
<rect width="128" height="128" fill="white"/>
<rect width="128" height="128" fill="black"/>
<path d="M55.4923 70L44.2958 54.2795C50.5234 52.1179 54.6311 46.8777 54.6311 40.1965C54.6311 31.2882 47.3433 25 37.4718 25H17V70H26.739V55.393H33.9605L44.362 70H55.4923ZM26.739 33.8428H36.4118C41.2482 33.8428 44.5608 36.3319 44.5608 40.1965C44.5608 44.0611 41.2482 46.5502 36.4118 46.5502H26.739V33.8428Z" fill="white"/>
<path d="M62.2987 70H72.0377V41.9651L86.1493 67.3799L100.195 41.9651V70H110V25H100.195L86.1493 50.4148L72.0377 25H62.2987V70Z" fill="white"/>
<path d="M23.713 102.629H28.3556V85.4866H35.0685V81.3713H17V85.4866H23.713V102.629Z" fill="white"/>
<path d="M38.2265 102.629H42.8691V81.3713H38.2265V102.629Z" fill="white"/>
<path d="M47.3583 102.629H51.9695V89.3854L58.6511 101.391L65.3013 89.3854V102.629H69.9439V81.3713H65.3013L58.6511 93.3769L51.9695 81.3713H47.3583V102.629Z" fill="white"/>
<path d="M90.967 85.4866V81.3713H74.3728V102.629H90.967V98.5134H79.0154V93.8411H89.8377V89.7257H79.0154V85.4866H90.967Z" fill="white"/>
<path d="M102.624 103C107.894 103 111 100.308 111 96.2546C111 92.3249 107.926 90.9634 103.283 89.9423C99.9581 89.1997 98.672 88.7046 98.672 87.1575C98.672 85.8889 99.864 84.8678 101.84 84.8678C103.911 84.8678 106.075 85.7032 107.989 87.2194L110.404 83.9395C108.208 82.083 105.479 81 101.966 81C97.2604 81 93.998 83.692 93.998 87.6217C93.998 91.737 97.229 93.0056 101.778 94.0267C105.071 94.7693 106.326 95.2335 106.326 96.7496C106.326 98.0802 105.134 99.1322 102.813 99.1322C100.084 99.1322 97.7623 98.0802 95.7233 96.3474L93.057 99.4726C95.5665 101.762 98.8916 103 102.624 103Z" fill="white"/>
</svg>
