<svg width="512" height="512" viewBox="0 0 512 512" fill="none" xmlns="http://www.w3.org/2000/svg">
<path d="M241.73 512L213.589 358.009L479.36 265.771L386.209 512H241.73Z" fill="#49BBDF"/>
<path d="M225.315 422.107L219.843 393.185L255.8 364.262L275.342 392.403L225.315 422.107Z" fill="#246B98"/>
<path d="M99.4641 107.953L81.4918 102.229C75.6868 100.379 69.7603 104.711 69.7603 110.804V176.22C69.7603 182.493 76.0157 186.842 81.8954 184.657L99.4641 178.128V107.953Z" fill="#0C2718"/>
<path d="M301.717 256.855C301.717 246.224 278.266 229.496 267.323 220.116C306.407 204.482 314.426 185.258 337.095 171.188L378.321 206.827C352.786 227.933 301.717 267.486 301.717 256.855Z" fill="#FFAE63"/>
<path d="M188.964 106.308C217.886 164.153 235.865 315.798 317.159 315.798C359.687 315.798 402.362 290.785 409.397 250.919" stroke="#3A3A3A" stroke-width="2"/>
<path d="M231.67 181.35V76.6045L380.971 122.724L346.577 181.35C318.048 177.441 335.892 195.674 305.339 210.736C278.712 223.862 248.626 226.577 241.333 227.058C240.37 227.121 239.527 226.473 239.32 225.53C237.765 218.433 231.67 190.069 231.67 181.35Z" fill="#FFD38F"/>
<path d="M167.648 112.307L94.4889 106.562C92.7448 106.425 91.254 107.804 91.254 109.553V176.244C91.254 178.098 92.919 179.508 94.7477 179.203L167.648 167.04H200.602H229.062L237.301 158.793H246.28C249.594 158.793 252.28 156.106 252.28 152.793V126.554C252.28 123.24 249.594 120.554 246.28 120.554H237.301L229.062 112.307H167.648Z" fill="#364E3B"/>
<path d="M180.365 184.476L158.478 243.102L117.049 198.546L128.775 161.026L139.322 105.478C139.991 101.953 143.217 99.5045 146.792 99.8087L213.978 105.527L200.545 151.197C199.165 155.888 200.159 160.957 203.207 164.78L205.57 167.743L180.365 184.476Z" fill="#FFD38F"/>
<path d="M159.451 172.434L143.817 220.898L161.796 233.405L178.597 189.301C179.871 185.958 182.166 183.102 185.157 181.14L205.57 167.743C205.57 167.743 200.098 161.49 200.098 155.237C200.098 148.983 215.732 105.991 215.732 105.991L188.373 103.646L178.362 148.694C177.751 151.444 176.425 153.983 174.518 156.056L159.451 172.434Z" fill="#FFAE63"/>
<path d="M54.706 352.538L114.705 182.913C134.335 205.642 158.036 224.506 184.591 238.535L185.838 239.194L147.535 319.707L294.682 277.179C345.491 281.869 321.849 377.42 280.42 385.237C221.534 390.708 138.346 421.008 90.6634 411.628C42.9808 402.247 49.2344 364.727 54.706 352.538Z" fill="#49BBDF"/>
<path opacity="0.5" d="M146.162 320.953L186.028 238.877C186.028 238.877 174.984 233.333 168.049 228.715C161.899 224.619 161.796 224.807 161.796 224.807L113.332 347.53L146.162 320.953Z" fill="#001C52"/>
<path d="M137.373 109.435C166.295 167.279 184.274 318.925 265.568 318.925C308.096 318.925 350.771 293.911 357.807 254.046" stroke="#3A3A3A" stroke-width="2"/>
<path d="M301.666 113.47C277.46 119.89 245.302 101.878 232.25 92.07V120.603C220.087 117.036 195.227 105.088 193.091 85.8284C190.421 61.7538 212.67 -0.661996 232.25 4.68793C251.829 10.0379 256.278 18.9546 301.666 11.8212C347.054 4.68793 370.193 -16.7117 381.763 25.1961C393.332 67.1038 407.572 47.4873 436.941 80.4785C466.309 113.47 430.711 154.486 453.85 184.802C476.989 215.118 512.587 210.66 490.338 281.101C468.089 351.541 557.975 383.641 477.879 429.115C397.782 474.59 278.528 456.756 276.748 490.639C274.968 524.522 234.919 445.165 276.748 374.724C318.576 304.284 300.777 316.767 285.647 289.126C274.271 268.342 323.994 203.837 354.055 166.05C355.978 163.633 357.82 161.325 359.561 159.145C360.686 156.77 364.946 143.369 365.814 140.385C370.798 123.265 347.351 123.75 340.825 125.533L322.04 152.702C326.49 139.625 325.873 107.05 301.666 113.47Z" fill="url(#paint0_linear)"/>
<defs>
<linearGradient id="paint0_linear" x1="352.335" y1="0" x2="352.335" y2="498.711" gradientUnits="userSpaceOnUse">
<stop stop-color="#595959"/>
<stop offset="1" stop-color="#2F0D27"/>
</linearGradient>
</defs>
</svg>
