<svg width="512" height="512" viewBox="0 0 512 512" fill="none" xmlns="http://www.w3.org/2000/svg">
<path d="M231.399 512L208.59 357.594L479.087 265.107L403.405 512H231.399Z" fill="#319DBF"/>
<path d="M218.5 425.336L214.312 396.177L252.208 368.949L269.967 382.721L270.726 397.982L218.5 425.336Z" fill="#246B98"/>
<path d="M112.544 93.2156L99.2463 85.7207C93.8266 82.6659 86.9843 85.9171 85.9124 92.0564L74.773 155.861C73.6668 162.197 79.3774 167.579 85.6533 166.116L100.417 162.674L112.544 93.2156Z" fill="#0C2718"/>
<path d="M298.867 256.251C298.867 245.672 275.182 229.026 264.129 219.692C303.604 204.135 311.703 185.005 334.598 171.004L376.237 206.469C350.447 227.471 298.867 266.83 298.867 256.251Z" fill="#FFAE63"/>
<path d="M182.877 106.245C212.43 164.08 230.801 315.7 313.87 315.7C357.326 315.7 400.932 290.69 408.12 250.831" stroke="#3A3A3A" stroke-width="2"/>
<path d="M227.103 181.492V75.8893L378.294 122.386L343.464 181.492C314.575 177.551 332.644 195.934 301.704 211.118C274.715 224.364 244.215 227.094 236.867 227.575C235.905 227.638 235.06 226.99 234.853 226.048C233.283 218.917 227.103 190.288 227.103 181.492Z" fill="#FFD38F"/>
<path d="M172.474 108.012L109.431 91.5881C107.728 91.1445 106.003 92.2546 105.701 93.9886L94.2934 159.327C93.9706 161.176 95.4073 162.855 97.2858 162.823L163.095 161.734L192.099 166.636L217.149 170.868L225.813 163.999L233.081 165.227C236.348 165.779 239.459 163.58 240.029 160.316L244.518 134.605C245.088 131.341 242.901 128.247 239.633 127.695L232.366 126.467L226.528 117.146L172.474 108.012Z" fill="#364E3B"/>
<path d="M179.261 185.498L135.575 297.763L86.9686 253.683L128.022 159.322L141.696 104.446C142.56 100.978 145.898 98.7182 149.439 99.2037L217.628 108.552L201.595 153.258C199.918 157.935 200.665 163.139 203.591 167.155L205.785 170.165L179.261 185.498Z" fill="#FFD38F"/>
<path d="M159.066 172.537L116.816 293.661L134.38 307.192L177.705 191.173C179.087 187.474 181.713 184.371 185.133 182.397L206.081 170.306C206.081 170.306 200.866 163.73 201.199 157.448C201.532 151.166 219.674 108.82 219.674 108.82L192.057 104.993L179.506 149.711C178.74 152.437 177.266 154.911 175.232 156.881L159.066 172.537Z" fill="#FFAE63"/>
<path d="M46.7761 352.918L89.5889 238.107C89.5889 238.107 106.934 261.084 121.777 271.088C136.294 280.872 162.082 287.576 162.082 287.576L141.361 320.059L291.289 277.494C343.059 282.188 318.97 377.822 276.758 385.646C216.758 391.122 131.997 421.448 83.4133 412.059C34.8292 402.671 41.201 365.118 46.7761 352.918Z" fill="#49BBDF"/>
<path d="M71.3965 287.576L77.8086 270.172L78.7246 265.592L155.67 296.736C154.143 299.79 150.54 306.629 148.342 309.561C145.594 313.225 148.342 312.309 115.365 314.141C88.984 315.606 75.0605 297.042 71.3965 287.576Z" fill="#4992C4"/>
<path opacity="0.5" d="M140.211 320.553L162.998 286.66C162.998 286.66 159.334 286.66 150.174 283.912C143.009 281.763 129.105 261.928 129.105 261.928L106.768 347.068L140.211 320.553Z" fill="#4869AA"/>
<path d="M143.762 102.541C173.045 160.375 178.938 318.735 261.248 318.735C304.307 318.735 347.515 293.725 354.638 253.867" stroke="#3A3A3A" stroke-width="2"/>
<path d="M254.539 128.992C229.871 135.4 240.421 101.699 227.119 91.908V120.391C214.725 116.83 189.391 104.903 187.214 85.6774C184.493 61.6451 207.167 -0.660831 227.119 4.67968C247.072 10.0202 251.607 18.9212 297.861 11.8004C344.114 4.67968 367.695 -16.6823 379.485 25.1517C391.275 66.9857 405.786 47.4038 435.715 80.3369C465.644 113.27 429.366 154.214 452.947 184.477C476.527 214.74 512.805 210.289 490.131 280.606C467.458 350.923 559.058 382.966 477.434 428.36C395.81 473.754 274.28 455.953 272.466 489.776C270.652 523.599 229.84 444.382 272.466 374.065C315.092 303.748 296.954 316.209 281.536 288.617C269.831 267.669 274.409 216.24 300.123 180.113C301.506 178.169 302.951 176.27 304.457 174.423C311.082 163.876 311.025 153.875 311.911 150.896C316.211 136.426 299.739 134.555 290.551 135.402C287.895 135.646 285.7 137.373 284.375 139.688L270.543 163.876C275.078 150.822 279.208 122.583 254.539 128.992Z" fill="url(#paint0_linear)"/>
<path d="M101.624 218.875L69.5644 245.592C65.9003 280.401 120.861 296.889 138.266 300.553C152.189 303.484 164.524 294.904 171.241 290.324L154.753 252.768C151.822 264.493 97.9609 239.027 101.624 218.875Z" fill="#FF9A23"/>
<defs>
<linearGradient id="paint0_linear" x1="349.495" y1="0" x2="349.495" y2="497.834" gradientUnits="userSpaceOnUse">
<stop stop-color="#595959"/>
<stop offset="1" stop-color="#151515"/>
</linearGradient>
</defs>
</svg>
