<svg width="378" height="138" viewBox="0 0 378 138" fill="none" xmlns="http://www.w3.org/2000/svg">
<path d="M11.736 19.28H4.44L3.096 23H0.792L6.84 6.368H9.36L15.384 23H13.08L11.736 19.28ZM11.112 17.504L8.088 9.056L5.064 17.504H11.112ZM26.8279 23L22.8439 16.16H20.2039V23H18.0199V6.272H23.4199C24.6839 6.272 25.7479 6.488 26.6119 6.92C27.4919 7.352 28.1479 7.936 28.5799 8.672C29.0119 9.408 29.2279 10.248 29.2279 11.192C29.2279 12.344 28.8919 13.36 28.2199 14.24C27.5639 15.12 26.5719 15.704 25.2439 15.992L29.4439 23H26.8279ZM20.2039 14.408H23.4199C24.6039 14.408 25.4919 14.12 26.0839 13.544C26.6759 12.952 26.9719 12.168 26.9719 11.192C26.9719 10.2 26.6759 9.432 26.0839 8.888C25.5079 8.344 24.6199 8.072 23.4199 8.072H20.2039V14.408ZM42.9174 6.272V8.048H38.3574V23H36.1734V8.048H31.5894V6.272H42.9174ZM47.7898 6.272V23H45.6058V6.272H47.7898ZM50.6961 14.624C50.6961 12.992 51.0641 11.528 51.8001 10.232C52.5361 8.92 53.5361 7.896 54.8001 7.16C56.0801 6.424 57.4961 6.056 59.0481 6.056C60.8721 6.056 62.4641 6.496 63.8241 7.376C65.1841 8.256 66.1761 9.504 66.8001 11.12H64.1841C63.7201 10.112 63.0481 9.336 62.1681 8.792C61.3041 8.248 60.2641 7.976 59.0481 7.976C57.8801 7.976 56.8321 8.248 55.9041 8.792C54.9761 9.336 54.2481 10.112 53.7201 11.12C53.1921 12.112 52.9281 13.28 52.9281 14.624C52.9281 15.952 53.1921 17.12 53.7201 18.128C54.2481 19.12 54.9761 19.888 55.9041 20.432C56.8321 20.976 57.8801 21.248 59.0481 21.248C60.2641 21.248 61.3041 20.984 62.1681 20.456C63.0481 19.912 63.7201 19.136 64.1841 18.128H66.8001C66.1761 19.728 65.1841 20.968 63.8241 21.848C62.4641 22.712 60.8721 23.144 59.0481 23.144C57.4961 23.144 56.0801 22.784 54.8001 22.064C53.5361 21.328 52.5361 20.312 51.8001 19.016C51.0641 17.72 50.6961 16.256 50.6961 14.624ZM72.2351 21.224H78.0911V23H70.0511V6.272H72.2351V21.224ZM82.5945 8.048V13.64H88.6905V15.44H82.5945V21.2H89.4105V23H80.4105V6.248H89.4105V8.048H82.5945ZM98.0192 23.168C96.9152 23.168 95.9232 22.976 95.0432 22.592C94.1792 22.192 93.4992 21.648 93.0032 20.96C92.5072 20.256 92.2512 19.448 92.2352 18.536H94.5632C94.6432 19.32 94.9632 19.984 95.5232 20.528C96.0992 21.056 96.9312 21.32 98.0192 21.32C99.0592 21.32 99.8752 21.064 100.467 20.552C101.075 20.024 101.379 19.352 101.379 18.536C101.379 17.896 101.203 17.376 100.851 16.976C100.499 16.576 100.059 16.272 99.5312 16.064C99.0032 15.856 98.2912 15.632 97.3952 15.392C96.2912 15.104 95.4032 14.816 94.7312 14.528C94.0752 14.24 93.5072 13.792 93.0272 13.184C92.5632 12.56 92.3312 11.728 92.3312 10.688C92.3312 9.776 92.5632 8.968 93.0272 8.264C93.4912 7.56 94.1392 7.016 94.9712 6.632C95.8192 6.248 96.7872 6.056 97.8752 6.056C99.4432 6.056 100.723 6.448 101.715 7.232C102.723 8.016 103.291 9.056 103.419 10.352H101.019C100.939 9.712 100.603 9.152 100.011 8.672C99.4192 8.176 98.6352 7.928 97.6592 7.928C96.7472 7.928 96.0032 8.168 95.4272 8.648C94.8512 9.112 94.5632 9.768 94.5632 10.616C94.5632 11.224 94.7312 11.72 95.0672 12.104C95.4192 12.488 95.8432 12.784 96.3392 12.992C96.8512 13.184 97.5632 13.408 98.4752 13.664C99.5792 13.968 100.467 14.272 101.139 14.576C101.811 14.864 102.387 15.32 102.867 15.944C103.347 16.552 103.587 17.384 103.587 18.44C103.587 19.256 103.371 20.024 102.939 20.744C102.507 21.464 101.867 22.048 101.019 22.496C100.171 22.944 99.1712 23.168 98.0192 23.168ZM130.168 6.392V23H127.984V10.616L122.464 23H120.928L115.384 10.592V23H113.2V6.392H115.552L121.696 20.12L127.84 6.392H130.168ZM143.759 19.28H136.463L135.119 23H132.815L138.863 6.368H141.383L147.407 23H145.103L143.759 19.28ZM143.135 17.504L140.111 9.056L137.087 17.504H143.135ZM155.251 6.272C157.075 6.272 158.651 6.616 159.979 7.304C161.323 7.976 162.347 8.944 163.051 10.208C163.771 11.472 164.131 12.96 164.131 14.672C164.131 16.384 163.771 17.872 163.051 19.136C162.347 20.384 161.323 21.344 159.979 22.016C158.651 22.672 157.075 23 155.251 23H150.043V6.272H155.251ZM155.251 21.2C157.411 21.2 159.059 20.632 160.195 19.496C161.331 18.344 161.899 16.736 161.899 14.672C161.899 12.592 161.323 10.968 160.171 9.8C159.035 8.632 157.395 8.048 155.251 8.048H152.227V21.2H155.251ZM169.196 8.048V13.64H175.292V15.44H169.196V21.2H176.012V23H167.012V6.248H176.012V8.048H169.196Z" fill="#1D1D1D"/>
<path d="M49.344 36.304L40.56 70H30.624L25.248 47.824L19.68 70H9.744L1.2 36.304H9.984L14.832 60.832L20.832 36.304H29.856L35.616 60.832L40.512 36.304H49.344ZM61.6684 36.304V70H53.4604V36.304H61.6684ZM91.8566 36.304V42.88H82.9286V70H74.7206V42.88H65.7926V36.304H91.8566ZM125.16 36.304V70H116.952V56.128H104.184V70H95.976V36.304H104.184V49.504H116.952V36.304H125.16ZM166.937 47.152C166.937 49.104 166.489 50.896 165.593 52.528C164.697 54.128 163.321 55.424 161.465 56.416C159.609 57.408 157.305 57.904 154.553 57.904H149.465V70H141.257V36.304H154.553C157.241 36.304 159.513 36.768 161.369 37.696C163.225 38.624 164.617 39.904 165.545 41.536C166.473 43.168 166.937 45.04 166.937 47.152ZM153.929 51.376C155.497 51.376 156.665 51.008 157.433 50.272C158.201 49.536 158.585 48.496 158.585 47.152C158.585 45.808 158.201 44.768 157.433 44.032C156.665 43.296 155.497 42.928 153.929 42.928H149.465V51.376H153.929ZM179.418 42.88V49.696H190.41V56.032H179.418V63.424H191.85V70H171.21V36.304H191.85V42.88H179.418ZM213.115 70.336C209.947 70.336 207.035 69.6 204.379 68.128C201.755 66.656 199.659 64.608 198.091 61.984C196.555 59.328 195.787 56.352 195.787 53.056C195.787 49.76 196.555 46.8 198.091 44.176C199.659 41.552 201.755 39.504 204.379 38.032C207.035 36.56 209.947 35.824 213.115 35.824C216.283 35.824 219.179 36.56 221.803 38.032C224.459 39.504 226.539 41.552 228.043 44.176C229.579 46.8 230.347 49.76 230.347 53.056C230.347 56.352 229.579 59.328 228.043 61.984C226.507 64.608 224.427 66.656 221.803 68.128C219.179 69.6 216.283 70.336 213.115 70.336ZM213.115 62.848C215.803 62.848 217.947 61.952 219.547 60.16C221.179 58.368 221.995 56 221.995 53.056C221.995 50.08 221.179 47.712 219.547 45.952C217.947 44.16 215.803 43.264 213.115 43.264C210.395 43.264 208.219 44.144 206.587 45.904C204.987 47.664 204.187 50.048 204.187 53.056C204.187 56.032 204.987 58.416 206.587 60.208C208.219 61.968 210.395 62.848 213.115 62.848ZM260.594 47.152C260.594 49.104 260.146 50.896 259.25 52.528C258.354 54.128 256.978 55.424 255.122 56.416C253.266 57.408 250.962 57.904 248.21 57.904H243.122V70H234.914V36.304H248.21C250.898 36.304 253.17 36.768 255.026 37.696C256.882 38.624 258.274 39.904 259.202 41.536C260.13 43.168 260.594 45.04 260.594 47.152ZM247.586 51.376C249.154 51.376 250.322 51.008 251.09 50.272C251.858 49.536 252.242 48.496 252.242 47.152C252.242 45.808 251.858 44.768 251.09 44.032C250.322 43.296 249.154 42.928 247.586 42.928H243.122V51.376H247.586ZM273.075 63.664H283.827V70H264.867V36.304H273.075V63.664ZM295.95 42.88V49.696H306.942V56.032H295.95V63.424H308.382V70H287.742V36.304H308.382V42.88H295.95Z" fill="#1D1D1D"/>
<path d="M343.304 60.272V62.048H336.032V67.688H341.936V69.464H336.032V77H333.848V60.272H343.304ZM353.526 77.168C351.974 77.168 350.558 76.808 349.278 76.088C347.998 75.352 346.982 74.336 346.23 73.04C345.494 71.728 345.126 70.256 345.126 68.624C345.126 66.992 345.494 65.528 346.23 64.232C346.982 62.92 347.998 61.904 349.278 61.184C350.558 60.448 351.974 60.08 353.526 60.08C355.094 60.08 356.518 60.448 357.798 61.184C359.078 61.904 360.086 62.912 360.822 64.208C361.558 65.504 361.926 66.976 361.926 68.624C361.926 70.272 361.558 71.744 360.822 73.04C360.086 74.336 359.078 75.352 357.798 76.088C356.518 76.808 355.094 77.168 353.526 77.168ZM353.526 75.272C354.694 75.272 355.742 75 356.67 74.456C357.614 73.912 358.35 73.136 358.878 72.128C359.422 71.12 359.694 69.952 359.694 68.624C359.694 67.28 359.422 66.112 358.878 65.12C358.35 64.112 357.622 63.336 356.694 62.792C355.766 62.248 354.71 61.976 353.526 61.976C352.342 61.976 351.286 62.248 350.358 62.792C349.43 63.336 348.694 64.112 348.15 65.12C347.622 66.112 347.358 67.28 347.358 68.624C347.358 69.952 347.622 71.12 348.15 72.128C348.694 73.136 349.43 73.912 350.358 74.456C351.302 75 352.358 75.272 353.526 75.272ZM373.617 77L369.633 70.16H366.993V77H364.809V60.272H370.209C371.473 60.272 372.537 60.488 373.401 60.92C374.281 61.352 374.937 61.936 375.369 62.672C375.801 63.408 376.017 64.248 376.017 65.192C376.017 66.344 375.681 67.36 375.009 68.24C374.353 69.12 373.361 69.704 372.033 69.992L376.233 77H373.617ZM366.993 68.408H370.209C371.393 68.408 372.281 68.12 372.873 67.544C373.465 66.952 373.761 66.168 373.761 65.192C373.761 64.2 373.465 63.432 372.873 62.888C372.297 62.344 371.409 62.072 370.209 62.072H366.993V68.408Z" fill="#1D1D1D"/>
<path d="M131.216 90.304V96.88H122.288V124H114.08V96.88H105.152V90.304H131.216ZM164.519 90.304V124H156.311V110.128H143.543V124H135.335V90.304H143.543V103.504H156.311V90.304H164.519ZM178.653 96.88V103.696H189.645V110.032H178.653V117.424H191.085V124H170.445V90.304H191.085V96.88H178.653ZM232.265 101.152C232.265 103.104 231.817 104.896 230.921 106.528C230.025 108.128 228.649 109.424 226.793 110.416C224.937 111.408 222.633 111.904 219.881 111.904H214.793V124H206.585V90.304H219.881C222.569 90.304 224.841 90.768 226.697 91.696C228.553 92.624 229.945 93.904 230.873 95.536C231.801 97.168 232.265 99.04 232.265 101.152ZM219.257 105.376C220.825 105.376 221.993 105.008 222.761 104.272C223.529 103.536 223.913 102.496 223.913 101.152C223.913 99.808 223.529 98.768 222.761 98.032C221.993 97.296 220.825 96.928 219.257 96.928H214.793V105.376H219.257ZM244.747 96.88V103.696H255.739V110.032H244.747V117.424H257.179V124H236.539V90.304H257.179V96.88H244.747ZM278.443 124.336C275.275 124.336 272.363 123.6 269.707 122.128C267.083 120.656 264.987 118.608 263.419 115.984C261.883 113.328 261.115 110.352 261.115 107.056C261.115 103.76 261.883 100.8 263.419 98.176C264.987 95.552 267.083 93.504 269.707 92.032C272.363 90.56 275.275 89.824 278.443 89.824C281.611 89.824 284.507 90.56 287.131 92.032C289.787 93.504 291.867 95.552 293.371 98.176C294.907 100.8 295.675 103.76 295.675 107.056C295.675 110.352 294.907 113.328 293.371 115.984C291.835 118.608 289.755 120.656 287.131 122.128C284.507 123.6 281.611 124.336 278.443 124.336ZM278.443 116.848C281.131 116.848 283.275 115.952 284.875 114.16C286.507 112.368 287.323 110 287.323 107.056C287.323 104.08 286.507 101.712 284.875 99.952C283.275 98.16 281.131 97.264 278.443 97.264C275.723 97.264 273.547 98.144 271.915 99.904C270.315 101.664 269.515 104.048 269.515 107.056C269.515 110.032 270.315 112.416 271.915 114.208C273.547 115.968 275.723 116.848 278.443 116.848ZM325.922 101.152C325.922 103.104 325.474 104.896 324.578 106.528C323.682 108.128 322.306 109.424 320.45 110.416C318.594 111.408 316.29 111.904 313.538 111.904H308.45V124H300.242V90.304H313.538C316.226 90.304 318.498 90.768 320.354 91.696C322.21 92.624 323.602 93.904 324.53 95.536C325.458 97.168 325.922 99.04 325.922 101.152ZM312.914 105.376C314.482 105.376 315.65 105.008 316.418 104.272C317.186 103.536 317.57 102.496 317.57 101.152C317.57 99.808 317.186 98.768 316.418 98.032C315.65 97.296 314.482 96.928 312.914 96.928H308.45V105.376H312.914ZM338.403 117.664H349.155V124H330.195V90.304H338.403V117.664ZM361.278 96.88V103.696H372.27V110.032H361.278V117.424H373.71V124H353.07V90.304H373.71V96.88H361.278Z" fill="#1D1D1D"/>
</svg>
